<svg xmlns="http://www.w3.org/2000/svg" viewBox="0 0 300 60">
  <!-- Truck Cab -->
  <path d="M10 20 L40 20 L40 50 L10 50 Z" fill="#f3f4f6" stroke="#374151" stroke-width="2"/>
  <path d="M40 20 L55 20 L65 35 L65 50 L40 50" fill="#f3f4f6" stroke="#374151" stroke-width="2"/>
  <path d="M45 25 L60 25 L60 35 L45 35 Z" fill="#9ca3af" /> <!-- Window -->
  
  <!-- Wheels -->
  <circle cx="25" cy="50" r="8" fill="#374151" stroke="#9ca3af" stroke-width="2"/>
  <circle cx="55" cy="50" r="8" fill="#374151" stroke="#9ca3af" stroke-width="2"/>
  
  <!-- Trailer -->
  <rect x="70" y="10" width="220" height="40" fill="black" rx="2" />
  
  <!-- Trailer Wheels -->
  <circle cx="240" cy="50" r="8" fill="#374151" stroke="#9ca3af" stroke-width="2"/>
  <circle cx="260" cy="50" r="8" fill="#374151" stroke="#9ca3af" stroke-width="2"/>
  <circle cx="280" cy="50" r="8" fill="#374151" stroke="#9ca3af" stroke-width="2"/>

  <!-- Text -->
  <text x="80" y="40" font-family="Impact, Arial Black, sans-serif" font-size="28" fill="#991b1b" stroke="white" stroke-width="1">ENTREGA</text>
  
  <!-- Stylized MAX -->
  <g transform="translate(190, 16)">
    <path d="M0 24 L10 0 L20 24 M25 24 L35 0 L45 24 M13 15 L17 15 M38 15 L42 15" stroke="white" stroke-width="3" fill="none" />
    <text x="0" y="24" font-family="Arial Black, sans-serif" font-size="28" fill="#991b1b" stroke="white" stroke-width="1">MAX</text>
  </g>
</svg>
